<svg width="400" height="400" xmlns="http://www.w3.org/2000/svg" xml:space="preserve"><circle cy="200.497" cx="199.5" fill="#fff" r="177.499"/><path stroke="null" fill="#fff" d="m115.789 319.455 43.213 31.3-19.844 27.396-43.213-31.299z"/><path fill="#26d37c" d="M388.4 244.1c-13.6 24-33.9 54.4-61.9 82.4-27.9 27.9-58.4 48.3-82.4 61.9-27.4 15.5-60.9 15.5-88.2 0-5.7-3.2-11.8-6.9-18.2-10.9v-97.4c17.2 13.4 38.8 21.4 62.3 21.4 56 0 101.5-45.5 101.5-101.5S256 98.5 200 98.5 98.5 144 98.5 200v149.1c-8.4-6.9-16.8-14.4-25-22.6-27.9-27.9-48.3-58.4-61.9-82.4-15.5-27.4-15.5-60.9 0-88.2 13.6-24 33.9-54.4 61.9-82.4 27.9-27.9 58.4-48.3 82.4-61.9a89.46 89.46 0 0 1 88.2 0c24 13.6 54.4 33.9 82.4 61.9 27.9 27.9 48.3 58.4 61.9 82.4a89.46 89.46 0 0 1 0 88.2zM262.3 200c0-34.3-27.9-62.3-62.3-62.3-34.3 0-62.3 27.9-62.3 62.3 0 34.3 27.9 62.3 62.3 62.3 34.3 0 62.3-28 62.3-62.3z" class="st0"/></svg>